<?xml version="1.0" encoding="UTF-8"?>
<!DOCTYPE svg PUBLIC "-//W3C//DTD SVG 1.1//EN" "http://www.w3.org/Graphics/SVG/1.1/DTD/svg11.dtd">
<!-- Creator: CorelDRAW -->
<svg xmlns="http://www.w3.org/2000/svg" xml:space="preserve" width="100mm" height="100mm" style="shape-rendering:geometricPrecision; text-rendering:geometricPrecision; image-rendering:optimizeQuality; fill-rule:evenodd; clip-rule:evenodd"
viewBox="0 0 100 100">
 <defs>
  <style type="text/css">
   <![CDATA[
    .str2 {stroke:#1F1A17;stroke-width:2.8222}
    .str0 {stroke:#1F1A17;stroke-width:2.8222;stroke-linecap:round;stroke-linejoin:round}
    .str1 {stroke:#1F1A17;stroke-width:2.8222;stroke-linecap:round;stroke-linejoin:round;stroke-dasharray:14 8}
    .fil0 {fill:none}
    .fil2 {fill:white}
    .fil1 {fill:#1F1A17;fill-rule:nonzero}
   ]]>
  </style>
 </defs>
 <g id="Layer_x0020_1">
  <metadata id="CorelCorpID_0Corel-Layer"/>
  <g id="_241505344">
   <rect id="_241506280" class="fil0 str0" x="22.6015" y="5.99812" width="71.4003" height="71.4003"/>
   <line id="_241506208" class="fil0 str1" x1="22.6015" y1="41.6983" x2="94.0018" y2= "41.6983" />
   <line id="_241506352" class="fil0 str1" x1="22.6015" y1="59.5483" x2="94.0018" y2= "59.5483" />
   <line id="_241505632" class="fil0 str1" x1="22.6015" y1="23.8482" x2="94.0018" y2= "23.8482" />
   <line id="_241505488" class="fil0 str1" x1="58.3017" y1="77.3984" x2="58.3017" y2= "5.9981" />
   <g>
    <path id="_241505248" class="fil1" d="M64.9142 8.0185l-2.1056 1.863 -0.0466 -0.0554 -0.0432 -0.057 -0.0399 -0.0587 -0.0366 -0.06 -0.0333 -0.0613 -0.03 -0.0625 -0.0268 -0.0636 -0.0234 -0.0645 -0.0202 -0.0653 -0.0169 -0.0659 -0.0137 -0.0666 -0.0104 -0.0669 -0.0071 -0.0673 -0.004 -0.0674 -0.0007 -0.0675 0.0025 -0.0674 0.0057 -0.0672 0.009 -0.0669 0.0121 -0.0664 0.0153 -0.0659 0.0185 -0.0652 0.0216 -0.0643 0.0249 -0.0635 0.0279 -0.0623 0.0312 -0.0612 0.0342 -0.0598 0.0374 -0.0584 0.0406 -0.0568 0.0436 -0.0551 0.0468 -0.0533 0.0498 -0.0514 0.053 -0.0493 0.0554 -0.0466 0.057 -0.0432 0.0587 -0.0399 0.06 -0.0366 0.0613 -0.0333 0.0625 -0.03 0.0636 -0.0268 0.0645 -0.0234 0.0653 -0.0202 0.0659 -0.0169 0.0666 -0.0137 0.0669 -0.0104 0.0673 -0.0071 0.0674 -0.004 0.0675 -0.0007 0.0674 0.0025 0.0672 0.0057 0.0669 0.009 0.0664 0.0121 0.0659 0.0153 0.0652 0.0185 0.0643 0.0216 0.0635 0.0249 0.0623 0.0279 0.0612 0.0312 0.0598 0.0342 0.0584 0.0374 0.0568 0.0406 0.0551 0.0436 0.0533 0.0468 0.0514 0.0498 0.0493 0.053zm-0.0551 28.8552l-1.9954 -1.9844 0.7291 -0.7604 0.68 -0.758 0.6252 -0.7556 0.5815 -0.7587 0.5324 -0.7563 0.4833 -0.7539 0.434 -0.757 0.3849 -0.7546 0.3357 -0.7522 0.2976 -0.7498 0.2429 -0.7529 0.1992 -0.7505 0.1555 -0.748 0.112 -0.7513 0.0682 -0.7543 0.0191 -0.7629 -0.0191 -0.7659 -0.0682 -0.7636 -0.112 -0.7723 -0.1555 -0.7753 -0.2047 -0.784 -0.2484 -0.787 -0.2921 -0.8011 -0.3467 -0.8042 -0.3905 -0.8074 -0.4395 -0.8215 -0.4832 -0.8246 -0.538 -0.8332 -0.587 -0.8363 -0.6362 -0.8448 -0.68 -0.8535 -0.7346 -0.8567 2.1056 -1.863 0.7898 0.9227 0.746 0.9197 0.6914 0.922 0.6422 0.9245 0.593 0.9214 0.5494 0.9238 0.4947 0.9207 0.4455 0.9286 0.3909 0.9256 0.3471 0.9223 0.2926 0.9304 0.2377 0.9272 0.1887 0.9297 0.134 0.9265 0.0792 0.929 0.0301 0.9203 -0.0301 0.9173 -0.0792 0.9197 -0.134 0.9165 -0.1887 0.9134 -0.2432 0.9049 -0.2981 0.8961 -0.3416 0.8932 -0.4019 0.8844 -0.4511 0.876 -0.5002 0.8672 -0.5493 0.8641 -0.5986 0.8555 -0.6477 0.8469 -0.7024 0.8438 -0.746 0.8352 -0.7953 0.8266zm-3.9139 0.2683l2.7543 0.5774 -1.6753 -1.6638 12.9334 -2.8045 0.5964 2.7503 -12.9335 2.8044 -1.6753 -1.6638zm0 0l1.6753 1.6638 -2.1205 0.4598 0.4452 -2.1236zm4.0927 -12.6668l1.3772 0.2887 -2.7156 12.9555 -2.7543 -0.5774 2.7156 -12.9555 1.3771 0.2887zm-2.1742 10.4141l1.9954 1.9844 -0.0523 0.05 -0.0543 0.0469 -0.056 0.0436 -0.0576 0.0404 -0.0592 0.0372 -0.0605 0.034 -0.0618 0.0307 -0.0629 0.0276 -0.0639 0.0243 -0.0648 0.0211 -0.0656 0.0179 -0.0662 0.0146 -0.0667 0.0115 -0.0671 0.0082 -0.0674 0.005 -0.0675 0.0018 -0.0675 -0.0014 -0.0674 -0.0046 -0.0671 -0.0079 -0.0668 -0.0111 -0.0663 -0.0143 -0.0657 -0.0175 -0.0649 -0.0208 -0.0641 -0.0239 -0.063 -0.0272 -0.062 -0.0304 -0.0607 -0.0337 -0.0594 -0.0368 -0.0578 -0.0401 -0.0563 -0.0433 -0.0545 -0.0465 -0.0526 -0.0498 -0.05 -0.0523 -0.0469 -0.0543 -0.0436 -0.056 -0.0404 -0.0576 -0.0372 -0.0592 -0.034 -0.0605 -0.0307 -0.0618 -0.0276 -0.0629 -0.0243 -0.0639 -0.0211 -0.0648 -0.0179 -0.0656 -0.0146 -0.0662 -0.0115 -0.0667 -0.0082 -0.0671 -0.005 -0.0674 -0.0018 -0.0675 0.0014 -0.0675 0.0046 -0.0674 0.0079 -0.0671 0.0111 -0.0668 0.0143 -0.0663 0.0175 -0.0657 0.0208 -0.0649 0.0239 -0.0641 0.0272 -0.063 0.0304 -0.062 0.0337 -0.0607 0.0368 -0.0594 0.0401 -0.0578 0.0433 -0.0563 0.0465 -0.0545 0.0498 -0.0526z"/>
   </g>
   <g>
    <path class="fil1" d="M62.6557 73.4584l2.1056 1.863 -0.0493 0.053 -0.0514 0.0498 -0.0533 0.0468 -0.0551 0.0436 -0.0568 0.0406 -0.0584 0.0374 -0.0598 0.0342 -0.0612 0.0312 -0.0623 0.0279 -0.0635 0.0249 -0.0643 0.0216 -0.0652 0.0185 -0.0659 0.0153 -0.0664 0.0121 -0.0669 0.009 -0.0672 0.0057 -0.0674 0.0025 -0.0675 -0.0007 -0.0674 -0.004 -0.0673 -0.0071 -0.0669 -0.0104 -0.0666 -0.0137 -0.0659 -0.0169 -0.0653 -0.0202 -0.0645 -0.0234 -0.0636 -0.0268 -0.0625 -0.03 -0.0613 -0.0333 -0.06 -0.0366 -0.0587 -0.0399 -0.057 -0.0432 -0.0554 -0.0466 -0.053 -0.0493 -0.0498 -0.0514 -0.0468 -0.0533 -0.0436 -0.0551 -0.0406 -0.0568 -0.0374 -0.0584 -0.0342 -0.0598 -0.0312 -0.0612 -0.0279 -0.0623 -0.0249 -0.0635 -0.0216 -0.0643 -0.0185 -0.0652 -0.0153 -0.0659 -0.0121 -0.0664 -0.009 -0.0669 -0.0057 -0.0672 -0.0025 -0.0674 0.0007 -0.0675 0.004 -0.0674 0.0071 -0.0673 0.0104 -0.0669 0.0137 -0.0666 0.0169 -0.0659 0.0202 -0.0653 0.0234 -0.0645 0.0268 -0.0636 0.03 -0.0625 0.0333 -0.0613 0.0366 -0.06 0.0399 -0.0587 0.0432 -0.057 0.0466 -0.0554zm0.0551 -25.0102l1.9954 -1.9844 0.7954 0.8268 0.7461 0.8353 0.7025 0.844 0.6478 0.847 0.5987 0.8556 0.5494 0.8643 0.5003 0.8673 0.4511 0.876 0.4019 0.8846 0.3417 0.8932 0.2981 0.8962 0.2433 0.9049 0.1887 0.9135 0.1339 0.9166 0.0793 0.9197 0.0301 0.9173 -0.0301 0.9204 -0.0793 0.929 -0.1339 0.9265 -0.1887 0.9298 -0.2378 0.9272 -0.2926 0.9304 -0.3472 0.9224 -0.3909 0.9257 -0.4455 0.9286 -0.4948 0.9207 -0.5495 0.9239 -0.5931 0.9214 -0.6423 0.9246 -0.6915 0.9222 -0.7461 0.9197 -0.7899 0.9228 -2.1056 -1.863 0.7347 -0.8568 0.6801 -0.8535 0.6363 -0.845 0.5871 -0.8364 0.5381 -0.8332 0.4833 -0.8247 0.4396 -0.8215 0.3905 -0.8074 0.3467 -0.8043 0.2922 -0.8012 0.2484 -0.787 0.2048 -0.784 0.1555 -0.7754 0.1119 -0.7723 0.0683 -0.7636 0.0191 -0.766 -0.0191 -0.7629 -0.0683 -0.7543 -0.1119 -0.7514 -0.1555 -0.7481 -0.1993 -0.7505 -0.2429 -0.753 -0.2977 -0.7498 -0.3357 -0.7524 -0.3849 -0.7546 -0.4341 -0.7571 -0.4834 -0.7541 -0.5325 -0.7564 -0.5816 -0.7588 -0.6253 -0.7558 -0.6801 -0.7581 -0.7292 -0.7606zm-0.2436 -3.9167l-0.5955 2.7505 1.6749 -1.6643 2.7189 12.9516 -2.7541 0.5782 -2.719 -12.9517 1.6748 -1.6643zm0 0l-1.6748 1.6643 -0.4458 -2.1234 2.1206 0.4591zm12.6396 4.1763l-0.2978 1.3753 -12.9373 -2.8011 0.5955 -2.7505 12.9373 2.8011 -0.2977 1.3752zm-10.4006 -2.244l-1.9954 1.9844 -0.0498 -0.0526 -0.0465 -0.0545 -0.0433 -0.0563 -0.0401 -0.0578 -0.0368 -0.0594 -0.0337 -0.0607 -0.0304 -0.062 -0.0272 -0.063 -0.0239 -0.0641 -0.0208 -0.0649 -0.0175 -0.0657 -0.0143 -0.0663 -0.0111 -0.0668 -0.0079 -0.0671 -0.0046 -0.0674 -0.0014 -0.0675 0.0018 -0.0675 0.005 -0.0674 0.0082 -0.0671 0.0115 -0.0667 0.0146 -0.0662 0.0179 -0.0656 0.0211 -0.0648 0.0243 -0.0639 0.0276 -0.0629 0.0307 -0.0618 0.034 -0.0605 0.0372 -0.0592 0.0404 -0.0576 0.0436 -0.056 0.0469 -0.0543 0.05 -0.0523 0.0526 -0.0498 0.0545 -0.0465 0.0563 -0.0433 0.0578 -0.0401 0.0594 -0.0368 0.0607 -0.0337 0.062 -0.0304 0.063 -0.0272 0.0641 -0.0239 0.0649 -0.0208 0.0657 -0.0175 0.0663 -0.0143 0.0668 -0.0111 0.0671 -0.0079 0.0674 -0.0046 0.0675 -0.0014 0.0675 0.0018 0.0674 0.005 0.0671 0.0082 0.0667 0.0115 0.0662 0.0146 0.0656 0.0179 0.0648 0.0211 0.0639 0.0243 0.0629 0.0276 0.0618 0.0307 0.0605 0.034 0.0592 0.0372 0.0576 0.0404 0.056 0.0436 0.0543 0.0469 0.0523 0.05z"/>
   </g>
  </g>
  <g>
   <polygon class="fil2 str2" points="22.6015,40.2254 7.2919,55.5349 22.6015,91.2574 37.9111,55.5349 "/>
   <circle class="fil2 str2" cx="22.6015" cy="24.9158" r="10.2064"/>
  </g>
 </g>
</svg>
