<?xml version="1.0" encoding="UTF-8"?>
<!DOCTYPE svg PUBLIC "-//W3C//DTD SVG 1.1//EN" "http://www.w3.org/Graphics/SVG/1.1/DTD/svg11.dtd">
<!-- Creator: CorelDRAW -->
<svg xmlns="http://www.w3.org/2000/svg" xml:space="preserve" width="100mm" height="100mm" style="shape-rendering:geometricPrecision; text-rendering:geometricPrecision; image-rendering:optimizeQuality; fill-rule:evenodd; clip-rule:evenodd"
viewBox="0 0 100 100">
 <defs>
  <style type="text/css">
   <![CDATA[
    .str0 {stroke:#1F1A17;stroke-width:1.4111;stroke-linecap:round;stroke-linejoin:round}
    .fil0 {fill:none}
   ]]>
  </style>
 </defs>
 <g id="Layer_x0020_1">
  <metadata id="CorelCorpID_0Corel-Layer"/>
  <g id="_238172376">
   <path id="_236064000" class="fil0 str0" d="M18.3493 42.6095c-3.3075,1.0576 -5.5495,2.2449 -8.9479,2.9572 -0.3497,0.0733 -0.3023,-0.7625 -0.1154,-1.0672 0.6407,-1.0445 0.8484,-1.4725 1.4771,-2.5246l3.9677 -6.6402 0.186 -0.3115 18.7781 0.3173 5.9709 2.8268"/>
   <path id="_236153408" class="fil0 str0" d="M16.4925 36.703l6.4687 19.1695 34.1955 22.8991m-33.0426 -23.453c11.6264,-12.9497 23.1565,-25.4136 35.1794,-37.4205 0.0487,9.067 -0.834,23.9293 -2.2411,30.6973l-27.641 6.293"/>
   <path id="_236152184" class="fil0 str0" d="M57.0524 48.5954l0.1224 36.0685c0.7523,0.4701 1.3789,0.3241 2.138,1.3373 1.8612,2.4841 4.4178,6.5395 6.966,8.4884 -2.732,-12.3753 -5.1245,-29.5524 -7.143,-39.4071 -0.0946,-0.4621 -0.1884,-0.9083 -0.2814,-1.3368 -0.5036,-2.3217 -1.2014,-4.0818 -1.802,-5.1503z"/>
   <polyline id="_236153024" class="fil0 str0" points="57.1533,80.1377 47.9857,79.3296 49.6987,73.7772 "/>
   <line id="_236152880" class="fil0 str0" x1="47.9857" y1="79.3296" x2="66.2788" y2= "94.4896" />
   <path id="_236152544" class="fil0 str0" d="M57.4373 45.749l33.4209 -33.4469c-4.0529,2.3723 -7.1828,3.3244 -11.9663,3.5575 -6.9179,0.3373 -13.8008,0.7059 -19.5984,2.0385"/>
   <path id="_236153624" class="fil0 str0" d="M59.2935 17.8981c6.3105,-1.812 11.5124,-3.4093 17.6579,-4.3832 4.9629,-0.7865 9.4976,-1.2627 13.9068,-1.2128"/>
   <path id="_237033544" class="fil0 str0" d="M33.6949 35.3405c5.9561,-7.5177 11.0056,-14.4165 17.1909,-21.7466 0.4956,-0.5873 2.2313,-1.5922 2.9818,-1.7592l28.4202 -6.3243 -5.3364 8.0045"/>
   <polyline id="_236862568" class="fil0 str0" points="17.0054,43.0637 19.7643,52.4186 22.5566,54.6732 "/>
   <line id="_236152016" class="fil0 str0" x1="16.4925" y1="36.703" x2="12.8007" y2= "41.7349" />
  </g>
 </g>
</svg>
