<?xml version="1.0" encoding="UTF-8"?>
<!DOCTYPE svg PUBLIC "-//W3C//DTD SVG 1.1//EN" "http://www.w3.org/Graphics/SVG/1.1/DTD/svg11.dtd">
<!-- Creator: CorelDRAW -->
<svg xmlns="http://www.w3.org/2000/svg" xml:space="preserve" width="100mm" height="100mm" style="shape-rendering:geometricPrecision; text-rendering:geometricPrecision; image-rendering:optimizeQuality; fill-rule:evenodd; clip-rule:evenodd"
viewBox="0 0 100 100">
 <defs>
  <style type="text/css">
   <![CDATA[
    .str0 {stroke:#1F1A17;stroke-width:2.8222;stroke-linecap:round;stroke-linejoin:round}
    .fil0 {fill:none}
   ]]>
  </style>
 </defs>
 <g id="Layer_x0020_1">
  <metadata id="CorelCorpID_0Corel-Layer"/>
  <g id="_238642304">
   <path id="_237630856" class="fil0 str0" d="M39.2712 85.0581l8.3869 -5.1057c0.7269,-10.5825 0.8403,-20.9639 0.6639,-31.1699 -10.7458,1.2623 -21.3494,3.0981 -32.1629,5.3427l-3.5455 8.2991"/>
   <path id="_237631120" class="fil0 str0" d="M39.8364 59.8608c-0.0005,-0.5927 0.0623,-1.1698 -1.3591,-0.9075 -13.4053,2.474 -17.9806,1.3813 -26.0988,3.5327 -1.9308,4.8404 -5.7747,13.2334 -5.7925,14.5214 -0.0026,0.1892 0.4605,0.6713 0.9902,1.195l7.038 8.4942c2.1472,1.412 6.0806,3.666 8.0903,5.2289 1.429,1.1112 1.8368,0.84 2.5719,0.4745l13.895 -6.9086c0.5199,-1.5502 0.6763,-12.2925 0.665,-25.6306z"/>
   <path id="_237631240" class="fil0 str0" d="M48.3804 61.7359c13.9519,-4.0041 33.4004,-10.2284 37.4033,-11.422 4.003,-1.1936 7.1625,-2.3016 7.5158,-2.2139 0.3988,0.0991 -0.2888,0.48 -1.3499,1.7138 -2.7118,3.1529 -8.9,9.5038 -13.2962,13.4084l-30.9953 16.7302"/>
   <path id="_237631192" class="fil0 str0" d="M16.1591 54.1252l13.8321 -31.2133c4.4672,-5.3047 8.9616,-11.0026 13.3714,-15.474 0.2611,-0.2711 0.5654,-0.2371 0.9658,0.4676l-9.3553 42.7408"/>
   <path id="_237630904" class="fil0 str0" d="M36.6567 42.9548c6.0251,-1.2813 11.0002,-2.6175 19.9482,-4.0326 0.2991,-0.0473 0.6212,0.2881 0.6068,0.5906 -0.3304,6.9663 -0.8543,13.2777 -1.2764,20.0045"/>
   <path id="_237630976" class="fil0 str0" d="M45.752 49.0956c1.662,-1.8766 2.5142,-2.6281 3.6336,-3.8944 0.5467,-0.6182 3.5037,-3.0416 4.5575,-2.4244 0.4345,0.5908 -0.6223,2.6033 -2.0341,4.5273 -1.3257,1.8069 -2.4504,3.1241 -3.546,4.3023"/>
   <path id="_237630808" class="fil0 str0" d="M17.7424 83.5283c8.0246,-9.192 9.8225,-11.4018 18.0057,-20.3182"/>
  </g>
 </g>
</svg>
