<?xml version="1.0" encoding="UTF-8"?>
<!DOCTYPE svg PUBLIC "-//W3C//DTD SVG 1.1//EN" "http://www.w3.org/Graphics/SVG/1.1/DTD/svg11.dtd">
<!-- Creator: CorelDRAW -->
<svg xmlns="http://www.w3.org/2000/svg" xml:space="preserve" width="100mm" height="100mm" style="shape-rendering:geometricPrecision; text-rendering:geometricPrecision; image-rendering:optimizeQuality; fill-rule:evenodd; clip-rule:evenodd"
viewBox="0 0 100 100">
 <defs>
  <style type="text/css">
   <![CDATA[
    .str0 {stroke:#1F1A17;stroke-width:2.8222;stroke-linecap:round;stroke-linejoin:round}
    .str1 {stroke:#1F1A17;stroke-width:2.8222;stroke-linecap:round;stroke-linejoin:round;stroke-dasharray:14 8}
    .fil0 {fill:none}
    .fil1 {fill:#1F1A17;fill-rule:nonzero}
   ]]>
  </style>
 </defs>
 <g id="Layer_x0020_1">
  <metadata id="CorelCorpID_0Corel-Layer"/>
  <g id="_239077936">
   <rect id="_239245464" class="fil0 str0" x="5.99816" y="5.99815" width="88.0037" height="88.0037"/>
   <line id="_239245872" class="fil0 str1" x1="5.9982" y1="50" x2="94.0018" y2= "50" />
   <line id="_239246040" class="fil0 str1" x1="5.9982" y1="72.0009" x2="94.0018" y2= "72.0009" />
   <line id="_239245656" class="fil0 str1" x1="5.9982" y1="27.9991" x2="94.0018" y2= "27.9991" />
   <line id="_58138032" class="fil0 str1" x1="50" y1="94.0018" x2="50" y2= "5.9981" />
   <g>
    <path id="_59681696" class="fil1" d="M57.9058 8.7042l-2.1056 1.863 -0.0466 -0.0554 -0.0432 -0.057 -0.0399 -0.0587 -0.0366 -0.06 -0.0333 -0.0613 -0.03 -0.0625 -0.0268 -0.0636 -0.0234 -0.0645 -0.0202 -0.0653 -0.0169 -0.0659 -0.0137 -0.0666 -0.0104 -0.0669 -0.0071 -0.0673 -0.004 -0.0674 -0.0007 -0.0675 0.0025 -0.0674 0.0057 -0.0672 0.009 -0.0669 0.0121 -0.0664 0.0153 -0.0659 0.0185 -0.0652 0.0216 -0.0643 0.0249 -0.0635 0.0279 -0.0623 0.0312 -0.0612 0.0342 -0.0598 0.0374 -0.0584 0.0406 -0.0568 0.0436 -0.0551 0.0468 -0.0533 0.0498 -0.0514 0.053 -0.0493 0.0554 -0.0466 0.057 -0.0432 0.0587 -0.0399 0.06 -0.0366 0.0613 -0.0333 0.0625 -0.03 0.0636 -0.0268 0.0645 -0.0234 0.0653 -0.0202 0.0659 -0.0169 0.0666 -0.0137 0.0669 -0.0104 0.0673 -0.0071 0.0674 -0.004 0.0675 -0.0007 0.0674 0.0025 0.0672 0.0057 0.0669 0.009 0.0664 0.0121 0.0659 0.0153 0.0652 0.0185 0.0643 0.0216 0.0635 0.0249 0.0623 0.0279 0.0612 0.0312 0.0598 0.0342 0.0584 0.0374 0.0568 0.0406 0.0551 0.0436 0.0533 0.0468 0.0514 0.0498 0.0493 0.053zm-0.0551 35.119l-1.9954 -1.9844 0.9064 -0.945 0.8459 -0.9433 0.7796 -0.9417 0.7246 -0.9455 0.6639 -0.9438 0.6035 -0.9421 0.5427 -0.9459 0.4821 -0.9442 0.4215 -0.9426 0.372 -0.9408 0.3057 -0.9447 0.2508 -0.943 0.1955 -0.9413 0.1406 -0.9452 0.0854 -0.9489 0.0248 -0.9582 -0.0248 -0.9621 -0.0854 -0.9604 -0.1406 -0.9698 -0.1955 -0.9735 -0.2563 -0.983 -0.3112 -0.9866 -0.3665 -1.0016 -0.4325 -1.0054 -0.4877 -1.0092 -0.5482 -1.0241 -0.6034 -1.0278 -0.6695 -1.0373 -0.7301 -1.041 -0.7906 -1.0503 -0.8459 -1.0597 -0.9119 -1.0636 2.1056 -1.863 0.9671 1.1296 0.9119 1.1259 0.8458 1.1275 0.7853 1.1292 0.7245 1.1255 0.6696 1.127 0.6034 1.1233 0.5427 1.1304 0.4767 1.1268 0.4215 1.1228 0.3554 1.13 0.2893 1.1262 0.2287 1.1279 0.1626 1.124 0.0964 1.1258 0.0358 1.1165 -0.0358 1.1126 -0.0964 1.1143 -0.1626 1.1104 -0.2287 1.1067 -0.2948 1.0974 -0.3609 1.0879 -0.416 1.0842 -0.4877 1.0748 -0.5483 1.0656 -0.6089 1.0561 -0.6695 1.0523 -0.7301 1.043 -0.7908 1.0337 -0.8568 1.0299 -0.9119 1.0205 -0.9726 1.0112zm-3.9139 0.2683l2.7543 0.5773 -1.6754 -1.6637 12.9334 -2.8046 0.5964 2.7502 -12.9334 2.8046 -1.6753 -1.6638zm0 0l1.6753 1.6638 -2.1204 0.4598 0.4451 -2.1236zm4.0926 -12.6669l1.3771 0.2887 -2.7154 12.9555 -2.7543 -0.5773 2.7154 -12.9555 1.3772 0.2886zm-2.1741 10.4142l1.9954 1.9844 -0.0523 0.05 -0.0543 0.0469 -0.056 0.0436 -0.0576 0.0404 -0.0592 0.0372 -0.0605 0.034 -0.0618 0.0307 -0.0629 0.0276 -0.0639 0.0243 -0.0648 0.0211 -0.0656 0.0179 -0.0662 0.0146 -0.0667 0.0115 -0.0671 0.0082 -0.0674 0.005 -0.0675 0.0018 -0.0675 -0.0014 -0.0674 -0.0046 -0.0671 -0.0079 -0.0668 -0.0111 -0.0663 -0.0143 -0.0657 -0.0175 -0.0649 -0.0208 -0.0641 -0.0239 -0.063 -0.0272 -0.062 -0.0304 -0.0607 -0.0337 -0.0594 -0.0368 -0.0578 -0.0401 -0.0563 -0.0433 -0.0545 -0.0465 -0.0526 -0.0498 -0.05 -0.0523 -0.0469 -0.0543 -0.0436 -0.056 -0.0404 -0.0576 -0.0372 -0.0592 -0.034 -0.0605 -0.0307 -0.0618 -0.0276 -0.0629 -0.0243 -0.0639 -0.0211 -0.0648 -0.0179 -0.0656 -0.0146 -0.0662 -0.0115 -0.0667 -0.0082 -0.0671 -0.005 -0.0674 -0.0018 -0.0675 0.0014 -0.0675 0.0046 -0.0674 0.0079 -0.0671 0.0111 -0.0668 0.0143 -0.0663 0.0175 -0.0657 0.0208 -0.0649 0.0239 -0.0641 0.0272 -0.063 0.0304 -0.062 0.0337 -0.0607 0.0368 -0.0594 0.0401 -0.0578 0.0433 -0.0563 0.0465 -0.0545 0.0498 -0.0526z"/>
   </g>
   <g>
    <path class="fil1" d="M55.6118 89.3616l2.1056 1.863 -0.0493 0.053 -0.0514 0.0498 -0.0533 0.0468 -0.0551 0.0436 -0.0568 0.0406 -0.0584 0.0374 -0.0598 0.0342 -0.0612 0.0312 -0.0623 0.0279 -0.0635 0.0249 -0.0643 0.0216 -0.0652 0.0185 -0.0659 0.0153 -0.0664 0.0121 -0.0669 0.009 -0.0672 0.0057 -0.0674 0.0025 -0.0675 -0.0007 -0.0674 -0.004 -0.0673 -0.0071 -0.0669 -0.0104 -0.0666 -0.0137 -0.0659 -0.0169 -0.0653 -0.0202 -0.0645 -0.0234 -0.0636 -0.0268 -0.0625 -0.03 -0.0613 -0.0333 -0.06 -0.0366 -0.0587 -0.0399 -0.057 -0.0432 -0.0554 -0.0466 -0.053 -0.0493 -0.0498 -0.0514 -0.0468 -0.0533 -0.0436 -0.0551 -0.0406 -0.0568 -0.0374 -0.0584 -0.0342 -0.0598 -0.0312 -0.0612 -0.0279 -0.0623 -0.0249 -0.0635 -0.0216 -0.0643 -0.0185 -0.0652 -0.0153 -0.0659 -0.0121 -0.0664 -0.009 -0.0669 -0.0057 -0.0672 -0.0025 -0.0674 0.0007 -0.0675 0.004 -0.0674 0.0071 -0.0673 0.0104 -0.0669 0.0137 -0.0666 0.0169 -0.0659 0.0202 -0.0653 0.0234 -0.0645 0.0268 -0.0636 0.03 -0.0625 0.0333 -0.0613 0.0366 -0.06 0.0399 -0.0587 0.0432 -0.057 0.0466 -0.0554zm0.0551 -31.2716l1.9954 -1.9844 0.9726 1.0112 0.9119 1.0205 0.8568 1.0299 0.7908 1.0337 0.7301 1.043 0.6694 1.0523 0.6089 1.0561 0.5483 1.0656 0.4877 1.0748 0.416 1.0842 0.361 1.0879 0.2947 1.0974 0.2287 1.1067 0.1626 1.1104 0.0964 1.1143 0.0358 1.1126 -0.0358 1.1165 -0.0964 1.1258 -0.1626 1.124 -0.2287 1.1279 -0.2892 1.1262 -0.3555 1.13 -0.4215 1.1228 -0.4767 1.1268 -0.5427 1.1304 -0.6034 1.1233 -0.6695 1.127 -0.7245 1.1255 -0.7853 1.1292 -0.8458 1.1275 -0.9119 1.1259 -0.9671 1.1296 -2.1056 -1.863 0.9119 -1.0636 0.8459 -1.0597 0.7906 -1.0503 0.7301 -1.041 0.6695 -1.0373 0.6033 -1.0278 0.5482 -1.0241 0.4877 -1.0092 0.4325 -1.0054 0.3665 -1.0016 0.3113 -0.9866 0.2562 -0.983 0.1955 -0.9735 0.1406 -0.9698 0.0854 -0.9604 0.0248 -0.9621 -0.0248 -0.9582 -0.0854 -0.9489 -0.1406 -0.9452 -0.1955 -0.9413 -0.2507 -0.943 -0.3058 -0.9447 -0.372 -0.9408 -0.4215 -0.9426 -0.4821 -0.9442 -0.5427 -0.9459 -0.6034 -0.9421 -0.6639 -0.9438 -0.7246 -0.9455 -0.7796 -0.9417 -0.8459 -0.9433 -0.9064 -0.945zm-0.2437 -3.9166l-0.5954 2.7504 1.6748 -1.6643 2.7194 12.9516 -2.7542 0.5782 -2.7193 -12.9516 1.6747 -1.6643zm0 0l-1.6747 1.6643 -0.4459 -2.1234 2.1206 0.4591zm12.6397 4.1759l-0.2977 1.3753 -12.9374 -2.8008 0.5954 -2.7504 12.9374 2.8007 -0.2977 1.3752zm-10.4006 -2.2437l-1.9954 1.9844 -0.0498 -0.0526 -0.0465 -0.0545 -0.0433 -0.0563 -0.0401 -0.0578 -0.0368 -0.0594 -0.0337 -0.0607 -0.0304 -0.062 -0.0272 -0.063 -0.0239 -0.0641 -0.0208 -0.0649 -0.0175 -0.0657 -0.0143 -0.0663 -0.0111 -0.0668 -0.0079 -0.0671 -0.0046 -0.0674 -0.0014 -0.0675 0.0018 -0.0675 0.005 -0.0674 0.0082 -0.0671 0.0115 -0.0667 0.0146 -0.0662 0.0179 -0.0656 0.0211 -0.0648 0.0243 -0.0639 0.0276 -0.0629 0.0307 -0.0618 0.034 -0.0605 0.0372 -0.0592 0.0404 -0.0576 0.0436 -0.056 0.0469 -0.0543 0.05 -0.0523 0.0526 -0.0498 0.0545 -0.0465 0.0563 -0.0433 0.0578 -0.0401 0.0594 -0.0368 0.0607 -0.0337 0.062 -0.0304 0.063 -0.0272 0.0641 -0.0239 0.0649 -0.0208 0.0657 -0.0175 0.0663 -0.0143 0.0668 -0.0111 0.0671 -0.0079 0.0674 -0.0046 0.0675 -0.0014 0.0675 0.0018 0.0674 0.005 0.0671 0.0082 0.0667 0.0115 0.0662 0.0146 0.0656 0.0179 0.0648 0.0211 0.0639 0.0243 0.0629 0.0276 0.0618 0.0307 0.0605 0.034 0.0592 0.0372 0.0576 0.0404 0.056 0.0436 0.0543 0.0469 0.0523 0.05z"/>
   </g>
  </g>
 </g>
</svg>
