<?xml version="1.0" encoding="UTF-8"?>
<!DOCTYPE svg PUBLIC "-//W3C//DTD SVG 1.1//EN" "http://www.w3.org/Graphics/SVG/1.1/DTD/svg11.dtd">
<!-- Creator: CorelDRAW -->
<svg xmlns="http://www.w3.org/2000/svg" xml:space="preserve" width="100mm" height="100mm" style="shape-rendering:geometricPrecision; text-rendering:geometricPrecision; image-rendering:optimizeQuality; fill-rule:evenodd; clip-rule:evenodd"
viewBox="0 0 100 100">
 <defs>
  <style type="text/css">
   <![CDATA[
    .str0 {stroke:#1F1A17;stroke-width:2.8222;stroke-linecap:round;stroke-linejoin:round}
    .fil0 {fill:none}
   ]]>
  </style>
 </defs>
 <g id="Layer_x0020_1">
  <metadata id="CorelCorpID_0Corel-Layer"/>
  <g id="_238802848">
   <path id="_237630184" class="fil0 str0" d="M21.2448 41.9483c-3.2483,1.0387 -7.78,2.0575 -11.1175,2.7569 -0.3432,0.0719 -0.2901,-0.7453 -0.1133,-1.0482 2.2003,-3.7668 3.7857,-7.1966 4.8903,-9.4575l0.1826 -0.3059 18.8987 0.7686 5.6911 2.6944"/>
   <path id="_237630760" class="fil0 str0" d="M19.6265 37.3799l6.1022 17.2271 27.5666 20.2093m-27.5666 -20.2093c11.4181,-12.7179 21.5895,-25.283 33.397,-37.0747 1.0878,8.416 0.3249,22.8383 -2.7075,30.2629l-22.3226 5.0817"/>
   <path id="_237630448" class="fil0 str0" d="M56.4182 47.7952l-3.8227 32.2545c0.7388,0.4617 4.1639,0.7519 5.4906,2.7158 1.7062,2.5254 6.338,9.954 8.8406,11.868 -2.6831,-12.1535 -5.0051,-30.7434 -6.9872,-40.4215 -0.0929,-0.4536 -0.3466,-1.4305 -0.4378,-1.8511 -0.4944,-2.28 -2.4937,-3.5163 -3.0835,-4.5657z"/>
   <polyline id="_237630304" class="fil0 str0" points="52.7777,78.6863 45.6343,79.2529 49.7028,72.4103 "/>
   <line id="_237630208" class="fil0 str0" x1="45.6343" y1="79.253" x2="66.9267" y2= "94.6335" />
   <path id="_237630280" class="fil0 str0" d="M58.0539 44.1324l32.071 -32.0959c-3.9803,2.3298 -7.0275,3.2498 -11.6901,3.8662 -7.1795,0.9491 -13.7089,0.4708 -19.3091,1.6296"/>
   <path id="_237630424" class="fil0 str0" d="M59.1257 17.5323c6.6924,-2.462 11.399,-4.5891 17.4343,-5.5455 4.8738,-0.7723 9.2347,-0.6198 13.5649,0.0497"/>
   <path id="_237630544" class="fil0 str0" d="M33.9856 34.6622c5.8495,-7.3831 10.8085,-14.1582 16.883,-21.3571 0.4868,-0.5767 2.1913,-1.5636 2.9284,-1.7277l27.911 -6.2109 -4.333 6.4992"/>
   <polyline id="_237831872" class="fil0 str0" points="18.1186,42.8495 20.5796,50.1857 25.1087,52.8564 "/>
   <line id="_237831848" class="fil0 str0" x1="19.6265" y1="37.3799" x2="17.9306" y2= "38.459" />
  </g>
 </g>
</svg>
