<?xml version="1.0" encoding="UTF-8"?>
<!DOCTYPE svg PUBLIC "-//W3C//DTD SVG 1.1//EN" "http://www.w3.org/Graphics/SVG/1.1/DTD/svg11.dtd">
<!-- Creator: CorelDRAW -->
<svg xmlns="http://www.w3.org/2000/svg" xml:space="preserve" width="100mm" height="100mm" style="shape-rendering:geometricPrecision; text-rendering:geometricPrecision; image-rendering:optimizeQuality; fill-rule:evenodd; clip-rule:evenodd"
viewBox="0 0 100 100">
 <defs>
  <style type="text/css">
   <![CDATA[
    .str0 {stroke:#1F1A17;stroke-width:1.4111;stroke-linecap:round;stroke-linejoin:round}
    .fil0 {fill:none}
   ]]>
  </style>
 </defs>
 <g id="Layer_x0020_1">
  <metadata id="CorelCorpID_0Corel-Layer"/>
  <g id="_236064120">
   <path id="_236152640" class="fil0 str0" d="M39.112 85.5781l8.5114 -5.1814c0.7376,-10.7394 0.8527,-21.2748 0.6737,-31.6322 -10.9051,1.2811 -21.666,3.1441 -32.64,5.4219l-3.598 8.4223"/>
   <path id="_236063688" class="fil0 str0" d="M39.6856 60.0072c-0.0005,-0.6015 0.0633,-1.1872 -1.3792,-0.921 -13.6041,2.5107 -18.2473,1.4018 -26.4859,3.5851 -1.9594,4.9122 -5.8603,13.4296 -5.8784,14.7368 -0.0027,0.192 0.4673,0.6812 1.0049,1.2127l7.1423 8.6202c2.1791,1.4329 6.1709,3.7204 8.2104,5.3064 1.4502,1.1277 1.864,0.8525 2.61,0.4816l14.1011 -7.0111c0.5276,-1.5732 0.6863,-12.4748 0.6748,-26.0107z"/>
   <path id="_236064096" class="fil0 str0" d="M48.3564 61.91c14.1588,-4.0634 33.8957,-10.38 37.9581,-11.5913 4.0623,-1.2113 7.2687,-2.3357 7.6272,-2.2467 0.4047,0.1005 -0.2931,0.487 -1.37,1.7391 -2.7519,3.1997 -9.032,9.6448 -13.4934,13.6073l-31.4549 16.9783"/>
   <path id="_237033376" class="fil0 str0" d="M15.6571 54.1864l14.0373 -31.6762c4.5335,-5.3833 9.0945,-11.1658 13.5698,-15.7035 0.2649,-0.2751 0.5738,-0.2405 0.98,0.4746l-9.494 43.3747"/>
   <path id="_236063208" class="fil0 str0" d="M36.4588 42.8504c6.1145,-1.3003 11.1633,-2.6563 20.244,-4.0924 0.3036,-0.048 0.6305,0.2924 0.6158,0.5994 -0.3353,7.0696 -0.8669,13.4746 -1.2953,20.3011"/>
   <path id="_238172304" class="fil0 str0" d="M47.0504 48.9651c2.4266,-2.7364 2.6284,-3.1684 4.6628,-5.3622 0.3174,-0.3421 1.3876,-1.3511 2.5099,-1.5477 -0.0018,0.5815 -0.2681,1.6493 -1.3904,2.951 -2.2448,2.6037 -1.9437,2.4734 -4.3654,5.1161"/>
   <path id="_236862376" class="fil0 str0" d="M15.7847 85.7185c9.9793,-11.4085 11.1181,-12.9369 21.3524,-24.0534"/>
  </g>
 </g>
</svg>
