<?xml version="1.0" encoding="UTF-8"?>
<!DOCTYPE svg PUBLIC "-//W3C//DTD SVG 1.1//EN" "http://www.w3.org/Graphics/SVG/1.1/DTD/svg11.dtd">
<!-- Creator: CorelDRAW -->
<svg xmlns="http://www.w3.org/2000/svg" xml:space="preserve" width="100mm" height="100mm" style="shape-rendering:geometricPrecision; text-rendering:geometricPrecision; image-rendering:optimizeQuality; fill-rule:evenodd; clip-rule:evenodd"
viewBox="0 0 100 100">
 <defs>
  <style type="text/css">
   <![CDATA[
    .fil0 {fill:#1F1A17;fill-rule:nonzero}
   ]]>
  </style>
 </defs>
 <g id="Layer_x0020_1">
  <metadata id="CorelCorpID_0Corel-Layer"/>
  <path class="fil0" d="M50.4041 50.246l-9.9447 0 -3.9505 -10.2818 -18.0878 0 -3.7293 10.2818 -9.6918 0 17.6244 -45.246 9.6602 0 18.1195 45.246zm-16.8238 -17.8983l-6.2364 -16.7921 -6.1101 16.7921 12.3465 0z"/>
  <polygon class="fil0" points="58.2341,95 58.2341,86.7619 82.0003,57.4124 60.9205,57.4124 60.9205,49.7537 94.0414,49.7537 94.0414,56.854 69.2534,87.3729 95,87.3729 95,95 "/>
  <g>
   <path class="fil0" d="M26.3072 79.0527l-1.4056 -1.4111 0 -23.9396 2.8112 0 0 23.9396 -1.4056 1.4111zm0 0l-1.4056 0 0 -1.4111 1.4056 1.4111zm10.352 0l-10.352 0 0 -2.8222 10.352 0 0 2.8222zm16.3744 -1.4111l-17.2775 8.6416 0 -17.2775 17.2775 8.6359z"/>
  </g>
 </g>
</svg>
